<svg width="18" height="17" viewBox="0 0 18 17" fill="none" xmlns="http://www.w3.org/2000/svg">
<g clip-path="url(#clip0_0_700)">
<path d="M3.0278 2H0.421875V0H4.81595L5.26476 4H16.4219V9.93845L4.19128 12.3694L3.0278 2ZM15.9219 17C15.0934 17 14.4219 16.3284 14.4219 15.5C14.4219 14.6716 15.0934 14 15.9219 14C16.7503 14 17.4219 14.6716 17.4219 15.5C17.4219 16.3284 16.7503 17 15.9219 17ZM5.92188 17C5.09345 17 4.42188 16.3284 4.42188 15.5C4.42188 14.6716 5.09345 14 5.92188 14C6.7503 14 7.42188 14.6716 7.42188 15.5C7.42188 16.3284 6.7503 17 5.92188 17Z" fill="white"/>
</g>
<defs>
<clipPath id="clip0_0_700">
<rect width="17" height="17" fill="white" transform="translate(0.421875)"/>
</clipPath>
</defs>
</svg>
