<svg width="40" height="41" viewBox="0 0 40 41" fill="none" xmlns="http://www.w3.org/2000/svg">
<rect y="0.734375" width="40" height="40" rx="20" fill="#272727"/>
<path d="M19.9998 12.4014C22.264 12.4014 22.5465 12.4097 23.4348 12.4514C24.3223 12.493 24.9265 12.6322 25.4582 12.8389C26.0082 13.0505 26.4715 13.3372 26.9348 13.7997C27.3586 14.2163 27.6865 14.7202 27.8957 15.2764C28.1015 15.8072 28.2415 16.4122 28.2832 17.2997C28.3223 18.188 28.3332 18.4705 28.3332 20.7347C28.3332 22.9988 28.3248 23.2813 28.2832 24.1697C28.2415 25.0572 28.1015 25.6613 27.8957 26.193C27.6871 26.7495 27.3591 27.2535 26.9348 27.6697C26.5181 28.0933 26.0143 28.4211 25.4582 28.6305C24.9273 28.8363 24.3223 28.9763 23.4348 29.018C22.5465 29.0572 22.264 29.068 19.9998 29.068C17.7357 29.068 17.4532 29.0597 16.5648 29.018C15.6773 28.9763 15.0732 28.8363 14.5415 28.6305C13.9851 28.4217 13.4811 28.0938 13.0648 27.6697C12.641 27.2532 12.3131 26.7492 12.104 26.193C11.8973 25.6622 11.7582 25.0572 11.7165 24.1697C11.6773 23.2813 11.6665 22.9988 11.6665 20.7347C11.6665 18.4705 11.6748 18.188 11.7165 17.2997C11.7582 16.4114 11.8973 15.808 12.104 15.2764C12.3125 14.7198 12.6405 14.2158 13.0648 13.7997C13.4812 13.3757 13.9852 13.0478 14.5415 12.8389C15.0732 12.6322 15.6765 12.493 16.5648 12.4514C17.4532 12.4122 17.7357 12.4014 19.9998 12.4014ZM19.9998 16.568C18.8948 16.568 17.835 17.007 17.0536 17.7884C16.2722 18.5698 15.8332 19.6296 15.8332 20.7347C15.8332 21.8398 16.2722 22.8996 17.0536 23.681C17.835 24.4624 18.8948 24.9013 19.9998 24.9013C21.1049 24.9013 22.1647 24.4624 22.9461 23.681C23.7275 22.8996 24.1665 21.8398 24.1665 20.7347C24.1665 19.6296 23.7275 18.5698 22.9461 17.7884C22.1647 17.007 21.1049 16.568 19.9998 16.568ZM25.4165 16.3597C25.4165 16.0834 25.3068 15.8185 25.1114 15.6231C24.9161 15.4278 24.6511 15.318 24.3748 15.318C24.0986 15.318 23.8336 15.4278 23.6383 15.6231C23.4429 15.8185 23.3332 16.0834 23.3332 16.3597C23.3332 16.636 23.4429 16.9009 23.6383 17.0963C23.8336 17.2916 24.0986 17.4014 24.3748 17.4014C24.6511 17.4014 24.9161 17.2916 25.1114 17.0963C25.3068 16.9009 25.4165 16.636 25.4165 16.3597ZM19.9998 18.2347C20.6629 18.2347 21.2988 18.4981 21.7676 18.9669C22.2364 19.4358 22.4998 20.0717 22.4998 20.7347C22.4998 21.3977 22.2364 22.0336 21.7676 22.5024C21.2988 22.9713 20.6629 23.2347 19.9998 23.2347C19.3368 23.2347 18.7009 22.9713 18.2321 22.5024C17.7632 22.0336 17.4998 21.3977 17.4998 20.7347C17.4998 20.0717 17.7632 19.4358 18.2321 18.9669C18.7009 18.4981 19.3368 18.2347 19.9998 18.2347Z" fill="white"/>
</svg>
