<svg width="40" height="41" viewBox="0 0 40 41" fill="none" xmlns="http://www.w3.org/2000/svg">
<rect y="0.734375" width="40" height="40" rx="20" fill="#272727"/>
<path d="M15.7835 14.9014C15.7833 15.3434 15.6075 15.7672 15.2948 16.0797C14.9821 16.3921 14.5581 16.5674 14.116 16.5672C13.674 16.567 13.2502 16.3912 12.9378 16.0785C12.6254 15.7658 12.45 15.3417 12.4502 14.8997C12.4504 14.4577 12.6262 14.0339 12.9389 13.7214C13.2517 13.409 13.6757 13.2337 14.1177 13.2339C14.5597 13.2341 14.9836 13.4099 15.296 13.7226C15.6084 14.0353 15.7837 14.4594 15.7835 14.9014ZM15.8335 17.8014H12.5002V28.2347H15.8335V17.8014ZM21.1002 17.8014H17.7835V28.2347H21.0669V22.7597C21.0669 19.7097 25.0419 19.4264 25.0419 22.7597V28.2347H28.3335V21.6264C28.3335 16.4847 22.4502 16.6764 21.0669 19.2014L21.1002 17.8014Z" fill="white"/>
</svg>
