<svg width="158" height="30" viewBox="0 0 158 30" fill="none" xmlns="http://www.w3.org/2000/svg">
<g clip-path="url(#clip0_0_654)">
<rect x="1.74988" y="5.55518" width="20.8891" height="20.8891" rx="10.4446" fill="#C9FA75"/>
</g>
<g clip-path="url(#clip1_0_654)">
<rect x="4.55542" y="8" width="20.8891" height="20.8891" rx="10.4446" fill="#CFB8FF"/>
</g>
<g clip-path="url(#clip2_0_654)">
<path d="M46.672 4.40039C47.68 4.40039 48.604 4.57772 49.444 4.93239C50.284 5.26839 51.0027 5.74439 51.6 6.36039C52.216 6.95772 52.692 7.67639 53.028 8.51639C53.3827 9.35639 53.56 10.2711 53.56 11.2604C53.56 12.2497 53.3827 13.1644 53.028 14.0044C52.692 14.8257 52.216 15.5444 51.6 16.1604C51.0027 16.7577 50.284 17.2337 49.444 17.5884C48.604 17.9244 47.68 18.0924 46.672 18.0924H42.92V24.0004H39V4.40039H46.672ZM49.64 11.2604C49.64 10.4017 49.3787 9.70172 48.856 9.16039C48.352 8.60039 47.624 8.32039 46.672 8.32039H42.92V14.1724H46.672C47.624 14.1724 48.352 13.9017 48.856 13.3604C49.3787 12.8004 49.64 12.1004 49.64 11.2604Z" fill="white"/>
<path d="M59.4166 12.2961C59.7899 11.4747 60.2939 10.8307 60.9286 10.3641C61.5819 9.89739 62.4033 9.66406 63.3926 9.66406C63.6539 9.66406 63.8873 9.68273 64.0926 9.72006C64.3166 9.75739 64.5406 9.80406 64.7646 9.86006V13.8361C64.5033 13.7428 64.2326 13.6868 63.9526 13.6681C63.6726 13.6308 63.3833 13.6121 63.0846 13.6121C61.8526 13.6121 60.9566 13.9574 60.3966 14.6481C59.8366 15.3201 59.5566 16.3281 59.5566 17.6721V24.0001H55.8606V10.0001H59.4166V12.2961Z" fill="white"/>
<path d="M65.2738 17.0001C65.2738 15.9174 65.4605 14.9281 65.8338 14.0321C66.2258 13.1174 66.7578 12.3427 67.4298 11.7081C68.1018 11.0547 68.8952 10.5507 69.8098 10.1961C70.7245 9.84139 71.7232 9.66406 72.8058 9.66406C73.8885 9.66406 74.8872 9.84139 75.8018 10.1961C76.7165 10.5507 77.5098 11.0547 78.1818 11.7081C78.8538 12.3427 79.3765 13.1174 79.7498 14.0321C80.1418 14.9281 80.3378 15.9174 80.3378 17.0001C80.3378 18.1014 80.1418 19.1001 79.7498 19.9961C79.3765 20.8921 78.8538 21.6668 78.1818 22.3201C77.5098 22.9548 76.7165 23.4494 75.8018 23.8041C74.8872 24.1588 73.8885 24.3361 72.8058 24.3361C71.7232 24.3361 70.7245 24.1588 69.8098 23.8041C68.8952 23.4494 68.1018 22.9548 67.4298 22.3201C66.7578 21.6668 66.2258 20.8921 65.8338 19.9961C65.4605 19.1001 65.2738 18.1014 65.2738 17.0001ZM76.5298 17.0001C76.5298 16.4401 76.4365 15.9361 76.2498 15.4881C76.0632 15.0214 75.8018 14.6294 75.4658 14.3121C75.1298 13.9761 74.7285 13.7241 74.2618 13.5561C73.8138 13.3694 73.3285 13.2761 72.8058 13.2761C72.2832 13.2761 71.7885 13.3694 71.3218 13.5561C70.8738 13.7241 70.4818 13.9761 70.1458 14.3121C69.8098 14.6294 69.5485 15.0214 69.3618 15.4881C69.1752 15.9361 69.0818 16.4401 69.0818 17.0001C69.0818 17.5601 69.1752 18.0734 69.3618 18.5401C69.5485 18.9881 69.8098 19.3801 70.1458 19.7161C70.4818 20.0334 70.8738 20.2854 71.3218 20.4721C71.7885 20.6401 72.2832 20.7241 72.8058 20.7241C73.3285 20.7241 73.8138 20.6401 74.2618 20.4721C74.7285 20.2854 75.1298 20.0334 75.4658 19.7161C75.8018 19.3801 76.0632 18.9881 76.2498 18.5401C76.4365 18.0734 76.5298 17.5601 76.5298 17.0001Z" fill="white"/>
<path d="M82.1666 5.99621C82.1666 5.32421 82.3906 4.76421 82.8386 4.31621C83.2866 3.84954 83.8466 3.61621 84.5186 3.61621C85.1906 3.61621 85.7506 3.84954 86.1986 4.31621C86.6653 4.76421 86.8986 5.32421 86.8986 5.99621C86.8986 6.66821 86.6653 7.22821 86.1986 7.67621C85.7506 8.12421 85.1906 8.34821 84.5186 8.34821C83.8466 8.34821 83.2866 8.12421 82.8386 7.67621C82.3906 7.22821 82.1666 6.66821 82.1666 5.99621ZM86.3666 10.0002V24.4202C86.3666 26.2869 85.8626 27.6402 84.8546 28.4802C83.8466 29.3202 82.3999 29.7402 80.5146 29.7402C80.3093 29.7402 80.1413 29.7402 80.0106 29.7402C79.8613 29.7402 79.6839 29.7309 79.4786 29.7122V26.2962H79.8706C80.9906 26.2962 81.7373 26.1095 82.1106 25.7362C82.4839 25.3815 82.6706 24.8309 82.6706 24.0842V10.0002H86.3666Z" fill="white"/>
<path d="M88.5981 17.0001C88.5981 15.9734 88.7661 15.0121 89.1021 14.1161C89.4381 13.2201 89.9141 12.4454 90.5301 11.7921C91.1461 11.1201 91.8927 10.5974 92.7701 10.2241C93.6661 9.85073 94.6647 9.66406 95.7661 9.66406C96.8301 9.66406 97.7914 9.84139 98.6501 10.1961C99.5087 10.5507 100.237 11.0547 100.834 11.7081C101.431 12.3427 101.889 13.1268 102.206 14.0601C102.523 14.9748 102.682 15.9921 102.682 17.1121V18.1201H92.3781L92.4061 18.1761C92.5181 18.6428 92.6954 19.0441 92.9381 19.3801C93.1994 19.7161 93.4981 19.9961 93.8341 20.2201C94.1701 20.4441 94.5341 20.6121 94.9261 20.7241C95.3367 20.8174 95.7474 20.8641 96.1581 20.8641C96.9981 20.8641 97.7447 20.7334 98.3981 20.4721C99.0701 20.2108 99.6487 19.8654 100.134 19.4361L101.674 22.4881C101.095 22.9734 100.358 23.4028 99.4621 23.7761C98.5661 24.1494 97.4461 24.3361 96.1021 24.3361C94.9261 24.3361 93.8714 24.1494 92.9381 23.7761C92.0047 23.4028 91.2114 22.8894 90.5581 22.2361C89.9234 21.5828 89.4381 20.8081 89.1021 19.9121C88.7661 19.0161 88.5981 18.0454 88.5981 17.0001ZM98.6501 15.4321C98.5567 14.6668 98.2581 14.0414 97.7541 13.5561C97.2501 13.0521 96.5501 12.8001 95.6541 12.8001C94.7581 12.8001 94.0301 13.0334 93.4701 13.5001C92.9101 13.9481 92.5367 14.5921 92.3501 15.4321H98.6501Z" fill="white"/>
<path d="M104.129 17.0001C104.129 15.8988 104.316 14.9001 104.689 14.0041C105.063 13.0894 105.576 12.3147 106.229 11.6801C106.901 11.0267 107.695 10.5321 108.609 10.1961C109.524 9.84139 110.523 9.66406 111.605 9.66406C112.725 9.66406 113.733 9.85073 114.629 10.2241C115.525 10.5787 116.291 11.0734 116.925 11.7081L114.825 14.6761C114.433 14.2841 113.976 13.9574 113.453 13.6961C112.931 13.4161 112.315 13.2761 111.605 13.2761C111.083 13.2761 110.597 13.3694 110.149 13.5561C109.701 13.7241 109.309 13.9761 108.973 14.3121C108.656 14.6294 108.404 15.0214 108.217 15.4881C108.031 15.9361 107.937 16.4401 107.937 17.0001C107.937 17.5601 108.031 18.0734 108.217 18.5401C108.404 18.9881 108.656 19.3801 108.973 19.7161C109.309 20.0334 109.701 20.2854 110.149 20.4721C110.597 20.6401 111.083 20.7241 111.605 20.7241C112.315 20.7241 112.94 20.5841 113.481 20.3041C114.041 20.0241 114.517 19.6881 114.909 19.2961L116.953 22.2641C116.356 22.8614 115.6 23.3561 114.685 23.7481C113.771 24.1401 112.725 24.3361 111.549 24.3361C110.485 24.3361 109.496 24.1681 108.581 23.8321C107.667 23.4774 106.883 22.9828 106.229 22.3481C105.576 21.6948 105.063 20.9201 104.689 20.0241C104.316 19.1281 104.129 18.1201 104.129 17.0001Z" fill="white"/>
<path d="M127.452 23.72C126.929 23.8507 126.407 23.9533 125.884 24.028C125.38 24.1027 124.895 24.14 124.428 24.14C123.121 24.14 122.104 23.804 121.376 23.132C120.667 22.46 120.312 21.3213 120.312 19.716V13.108H117.764V10H120.312V6.24805H124.008V10H127.564V13.108H124.008V19.184C124.008 19.632 124.12 19.9587 124.344 20.164C124.568 20.3507 124.923 20.444 125.408 20.444C125.688 20.444 125.968 20.4347 126.248 20.416C126.547 20.3787 126.948 20.3133 127.452 20.22V23.72Z" fill="white"/>
<path d="M129.873 5.99621C129.873 5.32421 130.097 4.76421 130.545 4.31621C130.993 3.84954 131.553 3.61621 132.225 3.61621C132.897 3.61621 133.457 3.84954 133.905 4.31621C134.372 4.76421 134.605 5.32421 134.605 5.99621C134.605 6.66821 134.372 7.22821 133.905 7.67621C133.457 8.12421 132.897 8.34821 132.225 8.34821C131.553 8.34821 130.993 8.12421 130.545 7.67621C130.097 7.22821 129.873 6.66821 129.873 5.99621ZM134.073 10.0002V24.0002H130.377V10.0002H134.073Z" fill="white"/>
<path d="M141.233 4.40039V24.0004H137.509V4.40039H141.233Z" fill="white"/>
<path d="M143.586 17.0001C143.586 15.9734 143.754 15.0121 144.09 14.1161C144.426 13.2201 144.902 12.4454 145.518 11.7921C146.134 11.1201 146.881 10.5974 147.758 10.2241C148.654 9.85073 149.653 9.66406 150.754 9.66406C151.818 9.66406 152.78 9.84139 153.638 10.1961C154.497 10.5507 155.225 11.0547 155.822 11.7081C156.42 12.3427 156.877 13.1268 157.194 14.0601C157.512 14.9748 157.67 15.9921 157.67 17.1121V18.1201H147.366L147.394 18.1761C147.506 18.6428 147.684 19.0441 147.926 19.3801C148.188 19.7161 148.486 19.9961 148.822 20.2201C149.158 20.4441 149.522 20.6121 149.914 20.7241C150.325 20.8174 150.736 20.8641 151.146 20.8641C151.986 20.8641 152.733 20.7334 153.386 20.4721C154.058 20.2108 154.637 19.8654 155.122 19.4361L156.662 22.4881C156.084 22.9734 155.346 23.4028 154.45 23.7761C153.554 24.1494 152.434 24.3361 151.09 24.3361C149.914 24.3361 148.86 24.1494 147.926 23.7761C146.993 23.4028 146.2 22.8894 145.546 22.2361C144.912 21.5828 144.426 20.8081 144.09 19.9121C143.754 19.0161 143.586 18.0454 143.586 17.0001ZM153.638 15.4321C153.545 14.6668 153.246 14.0414 152.742 13.5561C152.238 13.0521 151.538 12.8001 150.642 12.8001C149.746 12.8001 149.018 13.0334 148.458 13.5001C147.898 13.9481 147.525 14.5921 147.338 15.4321H153.638Z" fill="white"/>
</g>
<defs>
<clipPath id="clip0_0_654">
<rect width="10.4446" height="20.8891" fill="white" transform="translate(1.74988 5.55518)"/>
</clipPath>
<clipPath id="clip1_0_654">
<rect width="10.4446" height="20.8891" fill="white" transform="translate(15 8)"/>
</clipPath>
<clipPath id="clip2_0_654">
<rect width="119" height="27" fill="white" transform="translate(39 3)"/>
</clipPath>
</defs>
</svg>
