<svg width="32" height="33" viewBox="0 0 32 33" fill="none" xmlns="http://www.w3.org/2000/svg">
<path d="M28.9988 7.71055C28.9984 7.69205 28.9974 7.67359 28.996 7.65516C28.9948 7.64011 28.9933 7.62516 28.9915 7.61032C28.9894 7.59304 28.9867 7.57586 28.9836 7.55868C28.9809 7.54318 28.9779 7.52781 28.9745 7.51258C28.9708 7.49628 28.9665 7.48014 28.962 7.46402C28.9576 7.44861 28.9532 7.43335 28.9482 7.41827C28.9429 7.40252 28.9371 7.38702 28.931 7.37152C28.9253 7.35668 28.9194 7.34201 28.913 7.32758C28.9061 7.31232 28.8987 7.29733 28.8912 7.28237C28.884 7.26818 28.8766 7.25415 28.8688 7.24036C28.8606 7.22611 28.852 7.21209 28.8431 7.19814C28.8342 7.18408 28.8249 7.17028 28.8153 7.1567C28.8063 7.14392 28.7968 7.13138 28.7871 7.11893C28.7761 7.10492 28.7648 7.09131 28.7531 7.07791C28.7476 7.0716 28.7429 7.06487 28.7372 7.05866C28.7324 7.05341 28.727 7.04896 28.7221 7.04383C28.7101 7.0312 28.6976 7.01907 28.6849 7.00708C28.6731 6.99597 28.6612 6.98496 28.649 6.97449C28.637 6.96424 28.6246 6.95454 28.6121 6.94483C28.5984 6.93421 28.5848 6.92369 28.5707 6.91389C28.5585 6.90538 28.5459 6.89746 28.5333 6.8895C28.5184 6.8801 28.5036 6.87074 28.4883 6.86219C28.475 6.85475 28.4614 6.848 28.4478 6.84117C28.4327 6.83363 28.4177 6.82602 28.4023 6.81928C28.3874 6.81269 28.3721 6.80696 28.3567 6.8011C28.342 6.79549 28.3274 6.78977 28.3125 6.78489C28.2963 6.77955 28.2798 6.7751 28.2633 6.77058C28.2485 6.76656 28.2338 6.76249 28.2189 6.75916C28.2024 6.75547 28.1857 6.75257 28.1689 6.7497C28.1531 6.74702 28.1373 6.7444 28.1213 6.74248C28.1055 6.74056 28.0896 6.73926 28.0735 6.73811C28.0561 6.73682 28.0386 6.73582 28.0211 6.73546C28.014 6.73529 28.0071 6.73438 28 6.73438H4C3.99329 6.73438 3.98682 6.73526 3.9801 6.73538C3.96167 6.73574 3.94324 6.73678 3.92487 6.73815C3.90967 6.73931 3.89459 6.7405 3.87964 6.74231C3.86285 6.74432 3.84619 6.74707 3.82947 6.74997C3.81354 6.75272 3.79761 6.75543 3.78198 6.75894C3.76623 6.76245 3.75073 6.76673 3.73511 6.771C3.71936 6.77533 3.70361 6.77958 3.68817 6.78464C3.67255 6.78977 3.65717 6.79571 3.64172 6.80163C3.62714 6.80725 3.61249 6.81275 3.59821 6.81901C3.58228 6.82599 3.5667 6.83386 3.55108 6.84173C3.53795 6.84832 3.52483 6.85477 3.51208 6.86191C3.49645 6.87067 3.4812 6.88029 3.46594 6.88996C3.45373 6.89771 3.4414 6.90539 3.42956 6.91366C3.41522 6.92361 3.40137 6.9343 3.38751 6.9451C3.37518 6.95466 3.36297 6.96424 3.35114 6.97437C3.33881 6.9849 3.3269 6.99598 3.31494 7.00724C3.30231 7.01914 3.28992 7.03123 3.27789 7.04377C3.27301 7.04893 3.26764 7.0534 3.26282 7.05865C3.25714 7.06488 3.25238 7.0716 3.24689 7.07791C3.23523 7.09131 3.22388 7.10492 3.21289 7.11893C3.20318 7.13138 3.19372 7.14392 3.18469 7.1567C3.17505 7.17028 3.16583 7.18407 3.15686 7.19814C3.14801 7.21209 3.1394 7.2261 3.13122 7.24036C3.12341 7.25415 3.11603 7.26818 3.10882 7.28237C3.10126 7.29732 3.09387 7.31232 3.08703 7.32758C3.08062 7.34201 3.07471 7.35668 3.06897 7.37151C3.06293 7.38701 3.05706 7.40251 3.05182 7.41826C3.04682 7.43334 3.04236 7.44861 3.03802 7.46402C3.03351 7.48013 3.02923 7.49628 3.02551 7.51257C3.02209 7.5278 3.0191 7.54317 3.01636 7.55868C3.0133 7.57586 3.01062 7.59304 3.00848 7.61031C3.00665 7.62517 3.00516 7.64013 3.00402 7.65515C3.00256 7.67362 3.00162 7.69208 3.00122 7.71054C3.00104 7.71854 3 7.72632 3 7.73438V24.7344C3.00061 25.2646 3.21151 25.773 3.58646 26.1479C3.9614 26.5229 4.46975 26.7338 5 26.7344H27C27.5302 26.7338 28.0386 26.5229 28.4135 26.1479C28.7885 25.773 28.9994 25.2646 29 24.7344V7.73438C29 7.72632 28.999 7.71854 28.9988 7.71055ZM5 10.0077L12.3383 16.7344L5 23.4611V10.0077ZM6.57092 24.7344L13.8182 18.0911L15.3242 19.4716C15.5087 19.6406 15.7498 19.7344 16 19.7344C16.2502 19.7344 16.4913 19.6406 16.6758 19.4716L18.1818 18.091L25.4291 24.7344H6.57092ZM19.6618 16.7344L27.0002 10.0075L27.0012 23.4621L19.6618 16.7344Z" fill="white"/>
</svg>
