<svg width="58" height="58" viewBox="0 0 58 58" fill="none" xmlns="http://www.w3.org/2000/svg">
<path d="M0.812499 25.4976C2.7484 22.899 5.3316 20.8531 8.3047 19.564C6.6781 18.0759 5.5391 16.1309 5.0372 13.9842C4.5353 11.8374 4.6939 9.5891 5.4921 7.5341C6.2903 5.479 7.6909 3.71312 9.5103 2.468C11.3297 1.22288 13.4829 0.556641 15.6875 0.556641C17.8921 0.556641 20.0453 1.22288 21.8647 2.468C23.6841 3.71312 25.0847 5.479 25.8829 7.5341C26.6811 9.5891 26.8397 11.8374 26.3378 13.9842C25.8359 16.1309 24.6969 18.0759 23.0703 19.564C25.2127 20.4957 27.1607 21.8221 28.8125 23.4742C30.4643 21.8221 32.4123 20.4957 34.5547 19.564C32.9281 18.0759 31.7891 16.1309 31.2872 13.9842C30.7853 11.8374 30.9439 9.5891 31.7421 7.5341C32.5403 5.479 33.9409 3.71312 35.7603 2.468C37.5797 1.22288 39.7329 0.556641 41.9375 0.556641C44.1421 0.556641 46.2953 1.22288 48.1147 2.468C49.9341 3.71312 51.3347 5.479 52.1329 7.5341C52.9311 9.5891 53.0897 11.8374 52.5878 13.9842C52.0859 16.1309 50.9469 18.0759 49.3203 19.564C52.2934 20.8531 54.8766 22.899 56.8125 25.4976C56.9849 25.7274 57.1103 25.9889 57.1816 26.2672C57.2529 26.5455 57.2686 26.8351 57.228 27.1195C57.1874 27.4039 57.0911 27.6774 56.9448 27.9246C56.7984 28.1718 56.6048 28.3878 56.375 28.5601C55.9084 28.9012 55.3269 29.0464 54.7547 28.9647C54.1825 28.8829 53.665 28.5807 53.3125 28.1226C51.9881 26.3567 50.2707 24.9234 48.2963 23.9362C46.322 22.9491 44.1449 22.4351 41.9375 22.4351C39.7301 22.4351 37.553 22.9491 35.5787 23.9362C33.6043 24.9234 31.8869 26.3567 30.5625 28.1226L30.3984 28.2867H30.3711L30.2344 28.4234L30.1523 28.4781C30.1523 28.4853 30.1495 28.4923 30.1443 28.4974C30.1392 28.5025 30.1323 28.5054 30.125 28.5054L30.043 28.5601L29.9609 28.6148L29.8242 28.6968H29.7695L29.3047 28.8609H28.4023L28.1836 28.8062H28.1016L27.8555 28.6968L27.7734 28.6421C27.6854 28.5971 27.6028 28.5421 27.5273 28.4781H27.5L27.418 28.3961H27.3633C27.3086 28.3414 27.2539 28.314 27.2266 28.2593H27.1992L27.0352 28.0679C25.7081 26.3088 23.9903 24.8822 22.0174 23.9007C20.0446 22.9192 17.8706 22.4096 15.667 22.4123C13.4635 22.4149 11.2907 22.9297 9.3202 23.916C7.3497 24.9022 5.6353 26.333 4.3125 28.0953C4.1116 28.372 3.8487 28.5978 3.54476 28.7545C3.24085 28.9112 2.90443 28.9945 2.5625 28.9976C2.08821 29.0038 1.62573 28.8496 1.25 28.5601C1.02019 28.3878 0.826569 28.1718 0.680209 27.9246C0.533849 27.6774 0.437609 27.4039 0.396989 27.1195C0.356359 26.8351 0.372149 26.5455 0.443439 26.2672C0.514729 25.9889 0.640139 25.7274 0.812499 25.4976ZM49.3203 48.0015C50.9469 46.5134 52.0859 44.5684 52.5878 42.4217C53.0897 40.2749 52.9311 38.0266 52.1329 35.9716C51.3347 33.9165 49.9341 32.1506 48.1147 30.9055C46.2953 29.6604 44.1421 28.9941 41.9375 28.9941C39.7329 28.9941 37.5797 29.6604 35.7603 30.9055C33.9409 32.1506 32.5403 33.9165 31.7421 35.9716C30.9439 38.0266 30.7853 40.2749 31.2872 42.4217C31.7891 44.5684 32.9281 46.5134 34.5547 48.0015C32.4123 48.9332 30.4643 50.2596 28.8125 51.9117C27.1607 50.2596 25.2127 48.9332 23.0703 48.0015C24.6969 46.5134 25.8359 44.5684 26.3378 42.4217C26.8397 40.2749 26.6811 38.0266 25.8829 35.9716C25.0847 33.9165 23.6841 32.1506 21.8647 30.9055C20.0453 29.6604 17.8921 28.9941 15.6875 28.9941C13.4829 28.9941 11.3297 29.6604 9.5103 30.9055C7.6909 32.1506 6.2903 33.9165 5.4921 35.9716C4.6939 38.0266 4.5353 40.2749 5.0372 42.4217C5.5391 44.5684 6.6781 46.5134 8.3047 48.0015C5.3316 49.2906 2.7484 51.3365 0.812499 53.9351C0.568749 54.2601 0.420319 54.6466 0.383839 55.0512C0.347359 55.4558 0.424259 55.8625 0.605939 56.2259C0.787619 56.5893 1.06689 56.8948 1.41246 57.1084C1.75804 57.322 2.15626 57.4351 2.5625 57.4351H55.0625C55.4687 57.4351 55.867 57.322 56.2125 57.1084C56.5581 56.8948 56.8374 56.5893 57.0191 56.2259C57.2007 55.8625 57.2776 55.4558 57.2412 55.0512C57.2047 54.6466 57.0562 54.2601 56.8125 53.9351C54.8766 51.3365 52.2934 49.2906 49.3203 48.0015Z" fill="#FFD978"/>
</svg>
