<svg width="62" height="62" viewBox="0 0 62 62" fill="none" xmlns="http://www.w3.org/2000/svg">
<path d="M60.7457 1.00352C60.331 0.592745 59.7708 0.362305 59.1871 0.362305C58.6034 0.362305 58.0433 0.592745 57.6285 1.00352L43.8746 14.7848L42.398 13.3082C41.5876 12.4947 40.6246 11.8492 39.5641 11.4087C38.5037 10.9683 37.3667 10.7415 36.2184 10.7415C35.0701 10.7415 33.9331 10.9683 32.8726 11.4087C31.8121 11.8492 30.8491 12.4947 30.0387 13.3082L23.0934 20.2535L22.4645 19.5973C22.0394 19.2484 21.4999 19.0702 20.9507 19.0972C20.4015 19.1241 19.882 19.3544 19.4932 19.7432C19.1044 20.132 18.8741 20.6515 18.8472 21.2007C18.8202 21.7499 18.9984 22.2894 19.3473 22.7145L20.0035 23.3434L13.0582 30.2887C12.2447 31.0991 11.5992 32.0621 11.1587 33.1226C10.7183 34.1831 10.4915 35.3201 10.4915 36.4684C10.4915 37.6167 10.7183 38.7537 11.1587 39.8141C11.5992 40.8746 12.2447 41.8376 13.0582 42.648L14.5348 44.1246L0.753525 57.8785C0.342745 58.2933 0.112305 58.8534 0.112305 59.4371C0.112305 60.0208 0.342745 60.581 0.753525 60.9957C1.17164 61.4 1.73049 61.626 2.31211 61.626C2.89373 61.626 3.45258 61.4 3.8707 60.9957L17.6246 47.2145L19.1012 48.691C20.745 50.3207 22.9661 51.2351 25.2809 51.2351C27.5956 51.2351 29.8167 50.3207 31.4605 48.691L38.4059 41.7457L39.0348 42.402C39.4529 42.8062 40.0117 43.0322 40.5934 43.0322C41.175 43.0322 41.7338 42.8062 42.152 42.402C42.5627 41.9872 42.7932 41.4271 42.7932 40.8434C42.7932 40.2596 42.5627 39.6995 42.152 39.2848L41.4957 38.6559L48.441 31.7105C49.2545 30.9001 49.9 29.9371 50.3405 28.8766C50.781 27.8162 51.0077 26.6792 51.0077 25.5309C51.0077 24.3826 50.781 23.2456 50.3405 22.1851C49.9 21.1246 49.2545 20.1616 48.441 19.3512L46.9645 17.8746L60.7457 4.1207C61.1565 3.70597 61.3869 3.14584 61.3869 2.56211C61.3869 1.97838 61.1565 1.41825 60.7457 1.00352ZM45.3512 28.6207L38.4059 35.566L26.1832 23.3434L33.1285 16.398C33.5328 15.9896 34.014 15.6654 34.5444 15.4442C35.0747 15.2229 35.6437 15.109 36.2184 15.109C36.793 15.109 37.362 15.2229 37.8923 15.4442C38.4227 15.6654 38.9039 15.9896 39.3082 16.398L45.3512 22.441C45.7596 22.8453 46.0838 23.3265 46.305 23.8569C46.5263 24.3872 46.6402 24.9562 46.6402 25.5309C46.6402 26.1055 46.5263 26.6745 46.305 27.2048C46.0838 27.7352 45.7596 28.2164 45.3512 28.6207ZM59.0777 40.4332C58.9375 40.873 58.6601 41.2564 58.2861 41.527C57.9121 41.7977 57.4612 41.9414 56.9996 41.9371C56.7671 41.9407 56.5358 41.9037 56.316 41.8277L49.7535 39.6402C49.4806 39.5505 49.2281 39.4078 49.0103 39.2204C48.7925 39.0331 48.6138 38.8046 48.4843 38.5482C48.3548 38.2917 48.2771 38.0123 48.2556 37.7258C48.2341 37.4393 48.2692 37.1514 48.359 36.8785C48.4488 36.6056 48.5914 36.3531 48.7788 36.1353C48.9661 35.9175 49.1946 35.7388 49.451 35.6093C49.7075 35.4798 49.9869 35.4021 50.2734 35.3806C50.5599 35.3591 50.8478 35.3942 51.1207 35.484L57.6832 37.6715C57.9561 37.7612 58.2087 37.9039 58.4265 38.0912C58.6443 38.2786 58.823 38.507 58.9525 38.7635C59.082 39.02 59.1597 39.2994 59.1812 39.5859C59.2027 39.8724 59.1675 40.1603 59.0777 40.4332ZM2.42148 21.566C2.51125 21.2931 2.65387 21.0405 2.84124 20.8227C3.02861 20.605 3.25705 20.4262 3.5135 20.2967C3.76995 20.1672 4.0494 20.0895 4.33589 20.068C4.62238 20.0465 4.9103 20.0817 5.1832 20.1715L11.7457 22.359C12.2399 22.5214 12.6601 22.8547 12.9308 23.299C13.2015 23.7433 13.3049 24.2696 13.2226 24.7833C13.1403 25.297 12.8776 25.7645 12.4816 26.102C12.0856 26.4394 11.5824 26.6247 11.0621 26.6246C10.8296 26.6282 10.5983 26.5912 10.3785 26.5152L3.81602 24.3277C3.5431 24.238 3.29054 24.0954 3.07275 23.908C2.85496 23.7206 2.67621 23.4922 2.54672 23.2357C2.41722 22.9793 2.33951 22.6998 2.31802 22.4133C2.29653 22.1268 2.33169 21.8389 2.42148 21.566ZM19.9215 5.4332C19.8317 5.1603 19.7966 4.8724 19.8181 4.58591C19.8396 4.29943 19.9173 4.01998 20.0468 3.76353C20.1763 3.50708 20.355 3.27865 20.5728 3.09127C20.7906 2.9039 21.0431 2.76127 21.316 2.67148C21.8672 2.49019 22.4678 2.53525 22.9857 2.79678C23.5036 3.05831 23.8964 3.51486 24.0777 4.06602L26.2652 10.6285C26.355 10.9014 26.3902 11.1893 26.3687 11.4758C26.3472 11.7623 26.2695 12.0418 26.14 12.2982C26.0105 12.5547 25.8318 12.7831 25.614 12.9705C25.3962 13.1579 25.1436 13.3005 24.8707 13.3902C24.6509 13.4662 24.4196 13.5032 24.1871 13.4996C23.7255 13.5039 23.2746 13.3602 22.9006 13.0895C22.5267 12.8189 22.2492 12.4355 22.109 11.9957L19.9215 5.4332ZM41.5777 56.566C41.6675 56.8389 41.7027 57.1268 41.6812 57.4133C41.6597 57.6998 41.582 57.9793 41.4525 58.2357C41.323 58.4922 41.1443 58.7206 40.9265 58.908C40.7087 59.0954 40.4561 59.238 40.1832 59.3277C39.9634 59.4037 39.7321 59.4407 39.4996 59.4371C39.038 59.4414 38.5871 59.2977 38.2131 59.027C37.8392 58.7564 37.5617 58.373 37.4215 57.9332L35.234 51.3707C35.1442 51.0978 35.1091 50.8099 35.1306 50.5234C35.1521 50.2369 35.2298 49.9575 35.3593 49.701C35.4888 49.4446 35.6675 49.2161 35.8853 49.0288C36.1031 48.8414 36.3556 48.6988 36.6285 48.609C36.9014 48.5192 37.1893 48.4841 37.4758 48.5056C37.7623 48.5271 38.0417 48.6048 38.2982 48.7343C38.5546 48.8638 38.7831 49.0425 38.9704 49.2603C39.1578 49.4781 39.3005 49.7306 39.3902 50.0035L41.5777 56.566Z" fill="#C9FA75"/>
</svg>
