<svg width="58" height="60" viewBox="0 0 58 60" fill="none" xmlns="http://www.w3.org/2000/svg">
<path d="M53.5898 17.8741H52.3594C53.2918 16.4021 53.7851 14.6947 53.7812 12.9522C53.7808 11.3097 53.3451 9.6967 52.5187 8.2773C51.6924 6.8579 50.5047 5.68275 49.0766 4.87146C47.6485 4.06017 46.0309 3.64169 44.3886 3.65861C42.7462 3.67554 41.1376 4.12726 39.7266 4.96781C38.3823 3.07713 36.4717 1.66283 34.2709 0.929311C32.07 0.195791 29.693 0.181041 27.4832 0.887191C25.2734 1.59335 23.3454 2.98382 21.9778 4.85768C20.6101 6.7315 19.8737 8.9917 19.875 11.3116C19.8788 12.046 19.952 12.7784 20.0938 13.4991H4.5625C3.40218 13.4991 2.28938 13.96 1.46891 14.7805C0.64844 15.6009 0.1875 16.7137 0.1875 17.8741V44.1241C0.1875 45.2844 0.64844 46.3972 1.46891 47.2177C2.28938 48.0381 3.40218 48.4991 4.5625 48.4991H14.5977C15.9085 51.7319 18.1557 54.4991 21.0506 56.4456C23.9455 58.3921 27.3562 59.429 30.8446 59.4231C34.3331 59.4172 37.7402 58.3689 40.6286 56.4126C43.5169 54.4564 45.7547 51.6816 47.0547 48.4444C49.782 48.2117 52.323 46.9649 54.1759 44.95C56.0287 42.9352 57.0587 40.2988 57.0625 37.5616V21.3467C57.0625 20.8907 56.9727 20.4391 56.7982 20.0178C56.6236 19.5965 56.3678 19.2136 56.0454 18.8912C55.7229 18.5687 55.3401 18.3129 54.9188 18.1384C54.4974 17.9639 54.0459 17.8741 53.5898 17.8741ZM30.8125 4.74906C32.5508 4.75626 34.2158 5.44998 35.4449 6.6791C36.6741 7.9083 37.3678 9.5733 37.375 11.3116C37.3692 12.6165 36.9793 13.8909 36.2539 14.9756C35.8471 14.513 35.3466 14.1422 34.7857 13.8876C34.2247 13.633 33.616 13.5006 33 13.4991H24.6328C24.3844 12.7963 24.255 12.0569 24.25 11.3116C24.2572 9.5733 24.9509 7.9083 26.1801 6.6791C27.4092 5.44998 29.0742 4.75626 30.8125 4.74906ZM16.5938 37.5616V26.6241H13.8594C13.2792 26.6241 12.7228 26.3936 12.3126 25.9834C11.9023 25.5731 11.6719 25.0167 11.6719 24.4366C11.6719 23.8564 11.9023 23.3 12.3126 22.8898C12.7228 22.4795 13.2792 22.2491 13.8594 22.2491H23.7031C24.2833 22.2491 24.8397 22.4795 25.2499 22.8898C25.6602 23.3 25.8906 23.8564 25.8906 24.4366C25.8906 25.0167 25.6602 25.5731 25.2499 25.9834C24.8397 26.3936 24.2833 26.6241 23.7031 26.6241H20.9688V37.5616C20.9688 38.1417 20.7383 38.6981 20.328 39.1084C19.9178 39.5186 19.3614 39.7491 18.7812 39.7491C18.2011 39.7491 17.6447 39.5186 17.2345 39.1084C16.8242 38.6981 16.5938 38.1417 16.5938 37.5616ZM43.9375 41.9366C43.9375 45.4175 42.5547 48.7559 40.0933 51.2173C37.6319 53.6788 34.2935 55.0616 30.8125 55.0616C28.5099 55.0493 26.2502 54.4378 24.2557 53.2871C22.2612 52.1365 20.6006 50.4863 19.4375 48.4991H33C34.1603 48.4991 35.2731 48.0381 36.0936 47.2177C36.9141 46.3972 37.375 45.2844 37.375 44.1241V22.2491H43.9375V41.9366ZM44.4844 17.8741C43.75 17.8736 43.0251 17.7088 42.3627 17.3918C41.7003 17.0748 41.1173 16.6136 40.6562 16.042C41.3779 14.5696 41.752 12.9513 41.75 11.3116C41.7522 10.5483 41.6697 9.7871 41.5039 9.042C42.3569 8.3821 43.4059 8.0261 44.4844 8.0303C45.7897 8.0303 47.0416 8.5489 47.9647 9.4719C48.8877 10.3949 49.4062 11.6468 49.4062 12.9522C49.4062 14.2575 48.8877 15.5094 47.9647 16.4325C47.0416 17.3555 45.7897 17.8741 44.4844 17.8741ZM52.6875 37.5616C52.6838 38.9354 52.249 40.2734 51.4445 41.387C50.64 42.5005 49.5062 43.3336 48.2031 43.7686C48.2812 43.1611 48.3178 42.549 48.3125 41.9366V22.2491H52.6875V37.5616Z" fill="#CFB8FF"/>
</svg>
