<svg width="58" height="58" viewBox="0 0 58 58" fill="none" xmlns="http://www.w3.org/2000/svg">
<path d="M28.6875 0.5625C23.0631 0.5625 17.565 2.23033 12.8885 5.3551C8.212 8.4798 4.5671 12.9212 2.41469 18.1174C0.262322 23.3137 -0.300837 29.0315 0.796433 34.5479C1.8937 40.0642 4.6021 45.1313 8.5792 49.1083C12.5562 53.0854 17.6233 55.7938 23.1396 56.8911C28.656 57.9883 34.3738 57.4252 39.5701 55.2728C44.7663 53.1205 49.2077 49.4755 52.3324 44.799C55.4572 40.1225 57.125 34.6244 57.125 29C57.1106 21.4623 54.1098 14.2376 48.7799 8.9076C43.45 3.57768 36.2252 0.57695 28.6875 0.5625ZM31.9688 42.125H30.875V44.3125C30.875 44.8927 30.6445 45.4491 30.2343 45.8593C29.8241 46.2695 29.2677 46.5 28.6875 46.5C28.1074 46.5 27.551 46.2695 27.1407 45.8593C26.7305 45.4491 26.5 44.8927 26.5 44.3125V42.125H22.125C21.5449 42.125 20.9885 41.8945 20.5782 41.4843C20.168 41.0741 19.9375 40.5177 19.9375 39.9375C19.9375 39.3573 20.168 38.8009 20.5782 38.3907C20.9885 37.9805 21.5449 37.75 22.125 37.75H31.9688C32.839 37.75 33.6736 37.4043 34.289 36.7889C34.9043 36.1736 35.25 35.339 35.25 34.4688C35.25 33.5985 34.9043 32.7639 34.289 32.1486C33.6736 31.5332 32.839 31.1875 31.9688 31.1875H25.4063C23.3757 31.1875 21.4283 30.3809 19.9925 28.945C18.5567 27.5092 17.75 25.5618 17.75 23.5312C17.75 21.5007 18.5567 19.5533 19.9925 18.1175C21.4283 16.6816 23.3757 15.875 25.4063 15.875H26.5V13.6875C26.5 13.1073 26.7305 12.5509 27.1407 12.1407C27.551 11.7305 28.1074 11.5 28.6875 11.5C29.2677 11.5 29.8241 11.7305 30.2343 12.1407C30.6445 12.5509 30.875 13.1073 30.875 13.6875V15.875H35.25C35.8302 15.875 36.3866 16.1055 36.7968 16.5157C37.207 16.9259 37.4375 17.4823 37.4375 18.0625C37.4375 18.6427 37.207 19.1991 36.7968 19.6093C36.3866 20.0195 35.8302 20.25 35.25 20.25H25.4063C24.536 20.25 23.7014 20.5957 23.0861 21.2111C22.4707 21.8264 22.125 22.661 22.125 23.5312C22.125 24.4015 22.4707 25.2361 23.0861 25.8514C23.7014 26.4668 24.536 26.8125 25.4063 26.8125H31.9688C33.9993 26.8125 35.9467 27.6191 37.3825 29.055C38.8184 30.4908 39.625 32.4382 39.625 34.4688C39.625 36.4993 38.8184 38.4467 37.3825 39.8825C35.9467 41.3184 33.9993 42.125 31.9688 42.125Z" fill="#FA7A68"/>
</svg>
