<svg width="40" height="41" viewBox="0 0 40 41" fill="none" xmlns="http://www.w3.org/2000/svg">
<rect y="0.734375" width="40" height="40" rx="20" fill="#272727"/>
<path d="M28.4683 15.4476C27.8321 15.7291 27.1574 15.9139 26.4666 15.996C27.1947 15.5605 27.7397 14.8752 27.9999 14.0676C27.3166 14.4743 26.5674 14.7593 25.7866 14.9135C25.2621 14.3523 24.5669 13.9801 23.8091 13.8548C23.0512 13.7295 22.2732 13.8581 21.596 14.2205C20.9187 14.583 20.3802 15.159 20.0642 15.8591C19.7481 16.5592 19.6722 17.3441 19.8483 18.0918C18.4625 18.0224 17.1069 17.6622 15.8693 17.0349C14.6318 16.4075 13.54 15.5269 12.6649 14.4501C12.3552 14.9822 12.1924 15.587 12.1933 16.2026C12.1933 17.411 12.8083 18.4785 13.7433 19.1035C13.1899 19.0861 12.6488 18.9366 12.1649 18.6676V18.711C12.1651 19.5157 12.4436 20.2957 12.9531 20.9186C13.4627 21.5414 14.172 21.9689 14.9608 22.1285C14.4471 22.2677 13.9085 22.2882 13.3858 22.1885C13.6081 22.8812 14.0416 23.487 14.6254 23.9211C15.2092 24.3552 15.9142 24.5958 16.6416 24.6093C15.9187 25.1771 15.0909 25.5968 14.2057 25.8445C13.3204 26.0921 12.395 26.1629 11.4824 26.0527C13.0755 27.0772 14.93 27.6211 16.8241 27.6193C23.2349 27.6193 26.7408 22.3085 26.7408 17.7026C26.7408 17.5526 26.7366 17.401 26.7299 17.2526C27.4123 16.7595 28.0013 16.1485 28.4691 15.4485L28.4683 15.4476Z" fill="white"/>
</svg>
